<?xml version="1.0" encoding="UTF-8"?><svg xmlns="http://www.w3.org/2000/svg" xmlns:xlink="http://www.w3.org/1999/xlink"><symbol viewBox="0 0 804.89 800" id="facebook" xmlns="http://www.w3.org/2000/svg"><path d="M804.89 402.45C804.89 180.18 624.71 0 402.45 0S0 180.18 0 402.45C0 603.32 147.17 769.82 339.56 800V518.78H237.38V402.45h102.18v-88.66c0-100.86 60.08-156.58 152.01-156.58 44.03 0 90.09 7.86 90.09 7.86v99.04h-50.75c-49.99 0-65.58 31.02-65.58 62.85v75.49h111.62l-17.84 116.33h-93.77V800C657.73 769.81 804.9 603.32 804.9 402.45z"/></symbol><symbol viewBox="0 0 898.85 856.44" id="line" xmlns="http://www.w3.org/2000/svg"><path d="M898.85 364.71C898.85 163.61 697.24 0 449.42 0S0 163.61 0 364.71C0 545 159.89 695.99 375.86 724.53c14.64 3.16 34.56 9.65 39.59 22.16 4.53 11.36 2.97 29.16 1.45 40.64 0 0-5.27 31.71-6.41 38.47-1.96 11.36-9.03 44.44 38.93 24.23 47.97-20.21 258.82-152.4 353.11-260.93h-.02c65.13-71.43 96.33-143.91 96.33-224.39zM290.86 472.08c0 4.83-3.91 8.75-8.74 8.75H156.17c-2.35 0-4.47-.93-6.04-2.44-.04-.04-.09-.08-.13-.12a.71.71 0 01-.12-.13 8.7 8.7 0 01-2.45-6.04V276.28c0-4.83 3.92-8.75 8.75-8.75h31.53c4.83 0 8.75 3.92 8.75 8.75V431.8h85.66c4.83 0 8.74 3.92 8.74 8.75v31.53zm76 .02c0 4.82-3.92 8.73-8.75 8.73h-31.53c-4.83 0-8.75-3.91-8.75-8.73V276.27c0-4.82 3.92-8.74 8.75-8.74h31.53c4.83 0 8.75 3.92 8.75 8.74V472.1zm216.98 0c0 4.82-3.92 8.73-8.75 8.73h-31.52c-.78 0-1.53-.11-2.24-.3-.04 0-.09-.02-.13-.03-.2-.06-.39-.12-.6-.19-.09-.03-.17-.06-.26-.1-.15-.06-.28-.12-.43-.18-.14-.06-.28-.13-.42-.21-.09-.04-.16-.09-.25-.13-.18-.1-.36-.21-.54-.33a.55.55 0 00-.09-.07c-.84-.57-1.6-1.28-2.22-2.16l-89.85-121.35v116.3c0 4.82-3.92 8.73-8.76 8.73h-31.52c-4.83 0-8.75-3.91-8.75-8.73V276.25c0-4.82 3.92-8.74 8.75-8.74h31.52c.11 0 .2.01.31.01.16 0 .31.01.45.03.16.01.31.03.46.06.12.01.25.03.37.05.17.04.33.07.5.11.11.03.21.05.31.08.18.05.35.11.52.17.1.03.18.06.28.1.18.06.34.14.5.21.09.04.18.09.28.13.16.08.31.17.47.26.09.05.18.1.26.16.16.1.31.21.45.31.08.06.16.11.23.18.16.12.32.26.47.39.06.05.11.1.16.15.18.17.35.35.53.54l.06.06c.24.28.48.57.68.89l89.74 121.19V276.25c0-4.82 3.92-8.74 8.75-8.74h31.52c4.84 0 8.75 3.92 8.75 8.74v195.83zm174.07-164.28c0 4.84-3.91 8.75-8.74 8.75h-85.65v33.1h85.65c4.83 0 8.74 3.92 8.74 8.76v31.52c0 4.84-3.91 8.75-8.74 8.75h-85.65v33.1h85.65c4.83 0 8.74 3.92 8.74 8.75v31.53c0 4.83-3.91 8.75-8.74 8.75H623.22c-2.35 0-4.48-.94-6.04-2.45-.04-.04-.09-.08-.13-.11a1.42 1.42 0 01-.12-.13 8.7 8.7 0 01-2.45-6.04V276.3c0-2.36.93-4.48 2.43-6.04.04-.05.09-.1.14-.16.03-.03.07-.06.1-.09a8.685 8.685 0 016.07-2.47h125.95c4.83 0 8.74 3.92 8.74 8.76v31.52z"/></symbol><symbol viewBox="0 0 388.69 240.68" id="logo" xmlns="http://www.w3.org/2000/svg"><g data-name="レイヤー 2"><path d="M32.82 229.61h4.85l-.24.43a20 20 0 01-17.53 10.64A19.8 19.8 0 010 221a19.56 19.56 0 0119.85-19.69c7.33 0 14.5 4.27 17.44 10.4l.2.42h-4.83l-.08-.13a15.53 15.53 0 00-12.78-6.71c-8.24 0-15.47 7.36-15.47 15.76a16 16 0 0015.52 15.65c4.92 0 9.5-2.48 12.89-7zM50.48 215v-3.23h-4.13V240h4.13v-16.64c0-4.55 2.84-7.54 7.61-8h.29V211h-.31c-3.85.23-6.18 1.42-7.59 4zm12.43 11a15 15 0 0114.68-15 15.17 15.17 0 0114.84 15.1v1.36H67.17a10.67 10.67 0 0010.42 9.44 10.2 10.2 0 009.66-6.34l.07-.19h4.37l-.14.39a14.72 14.72 0 01-28.64-4.86zm4.29-2.22h20.93a10.82 10.82 0 00-10.54-8.89 10.62 10.62 0 00-10.39 8.79zM124.36 240v-4.38a13.17 13.17 0 01-10.6 5 14.84 14.84 0 110-29.67 12.81 12.81 0 0110.6 5.07v-4.36h4.13V240zm.2-14.12a11 11 0 00-10.85-11.11 11.06 11.06 0 1010.85 11.11zm21.2-24h-4.13v9.78h-5.83v3.78h5.83V240h4.13v-24.5h6.64v-3.78h-6.64zM160.12 240h4.13v-28.3h-4.13zm0-31.11h4.13v-7h-4.13zm24.61 25.66l-9.59-22.85h-4.43l11.87 28.12.08.18H187l12-28.3h-4.44zm47.27-7.09h-25.23a10.68 10.68 0 0010.43 9.44 10.2 10.2 0 009.65-6.34l.07-.19h4.37l-.14.39a14.75 14.75 0 11-14-19.75A15.16 15.16 0 01232 226.1a5.07 5.07 0 010 .55v.51zm-25.17-3.78h20.92a10.8 10.8 0 00-10.53-8.89 10.61 10.61 0 00-10.41 8.89zm73.85-21.74h-5.08l-9.72 14.76-9.83-14.76H251l12.19 18.64L250.23 240h5.11l10.53-15.77 10.3 15.64.09.13h5.16l-13-19.44zm4.32 24.11h10.23v-4H285zm24.16-24.11h-4.13V240h4.13zm34.17 9.78h4.13V240h-4.13v-4.38a13.17 13.17 0 01-10.6 5 14.84 14.84 0 110-29.67 12.81 12.81 0 0110.6 5.07zm.2 14.18a11 11 0 00-10.85-11.11 11.06 11.06 0 1010.85 11.11zm43.39-.1a14.88 14.88 0 01-15.19 14.88 13.16 13.16 0 01-10.59-5.06V240H357v-38.06h4.14v14.19a13.44 13.44 0 0110.62-5.13A14.84 14.84 0 01387 225.8zm-4.13.15a10.77 10.77 0 00-11.11-11.16 11.06 11.06 0 00.05 22.11 10.76 10.76 0 0011.09-10.9zm-280.52-62.89q14.13-13.37 14.13-29.3v-9.91H98.2v6a27.39 27.39 0 01-9 21q-9 8.32-22.59 8.32H50.29q-13.71 0-22.71-8.34a27.45 27.45 0 01-9-21V46.5a27.63 27.63 0 019-21.09q9-8.4 22.71-8.39H66.6q13.59 0 22.59 8.4a27.67 27.67 0 019 21.11v6.24h18.2V42.65q0-16-14.13-29.35T70.71 0H46.28Q28.87 0 14.73 13.14T.59 42.65v91.11q0 16.38 14.14 29.51t31.55 13.14h24.43q17.42 0 31.56-13.35zm104.82-75.69L258 0h-20.84l-37.32 63.54L162.51 0h-20.86l51 87.48-50.95 88.93h20.82l37.32-65.8 37.32 65.8H258zm101.33 71.81V0h-18.21v176.41h98.48v-17.23z" data-name="レイヤー 1"/></g></symbol><symbol viewBox="0 0 388.69 284.93" id="logo-large" xmlns="http://www.w3.org/2000/svg"><path d="M32.82 273.85h4.85l-.24.44a20 20 0 01-17.53 10.64A19.8 19.8 0 010 265.28a19.57 19.57 0 0119.85-19.7c7.33 0 14.5 4.28 17.44 10.4l.2.42h-4.83l-.08-.13a15.55 15.55 0 00-12.78-6.71c-8.24 0-15.47 7.37-15.47 15.77A16 16 0 0019.85 281c4.92 0 9.5-2.48 12.89-7zm17.66-14.65V256h-4.13v28.3h4.13v-16.69c0-4.55 2.84-7.55 7.61-8h.29v-4.36h-.31c-3.85.23-6.18 1.42-7.59 3.95zm12.43 10.95a15 15 0 0114.68-14.89 15.17 15.17 0 0114.84 15.09v1.36H67.17a10.67 10.67 0 0010.42 9.44 10.19 10.19 0 009.66-6.35l.07-.19h4.37l-.14.4a14.72 14.72 0 01-28.64-4.86zm4.29-2.22h20.93A10.82 10.82 0 0077.59 259a10.62 10.62 0 00-10.39 8.93zm57.16 16.34v-4.38a13.17 13.17 0 01-10.6 5 14.84 14.84 0 110-29.67 12.81 12.81 0 0110.6 5.07V256h4.13v28.3zm.2-14.12A11 11 0 00113.71 259a11.06 11.06 0 1010.85 11.11zm21.2-24h-4.13V256h-5.83v3.78h5.83v24.52h4.13v-24.55h6.64V256h-6.64zm14.36 38.08h4.13V256h-4.13zm0-31.11h4.13v-7h-4.13zm24.61 25.66L175.14 256h-4.43l11.87 28.12.08.18H187l12-28.3h-4.44zm47.27-7.07h-25.23a10.68 10.68 0 0010.43 9.44 10.19 10.19 0 009.65-6.35l.07-.19h4.37l-.14.4a14.75 14.75 0 11-14-19.75A15.16 15.16 0 01232 270.35a5.21 5.21 0 010 .55v.51zm-25.17-3.78h20.92A10.8 10.8 0 00217.2 259a10.61 10.61 0 00-10.39 8.93zm73.85-21.74h-5.08L265.88 261l-9.83-14.76H251l12.19 18.63-12.91 19.45h5.11l10.53-15.77 10.3 15.64.09.13h5.16l-13-19.45zM285 270.3h10.23v-4H285zm24.16-24.11h-4.13v38.08h4.13zm34.2 9.81h4.13v28.3h-4.13v-4.38a13.17 13.17 0 01-10.6 5 14.84 14.84 0 110-29.67 12.81 12.81 0 0110.6 5.07zm.2 14.18A11 11 0 00332.71 259a11.06 11.06 0 1010.85 11.11zM387 270a14.88 14.88 0 01-15.19 14.89 13.19 13.19 0 01-10.59-5.06v4.4H357v-38.04h4.14v14.19a13.44 13.44 0 0110.59-5.12A14.83 14.83 0 01387 270zm-4.13.16A10.77 10.77 0 00371.71 259a11.06 11.06 0 00.05 22.11 10.76 10.76 0 0011.06-10.91zM10.67 15.9H2.85V9.72h7.56V7.87H2.85v-6h7.82V0H.83v17.76h9.84zm6.53-5.6c0-2.58 1.57-4.3 3.9-4.3S25 7.73 25 10.41v7.35h1.93v-7.35c0-3.75-2.29-6.18-5.83-6.18A4.87 4.87 0 0017.2 6V4.56h-1.93v13.2h1.93zm15.65 7.46h1.93V6.32h3.09V4.56h-3.09V0h-1.93v4.56h-2.72v1.76h2.72zm7-6.59a7 7 0 016.85-6.94 7.06 7.06 0 016.91 7 2.17 2.17 0 010 .26v.38H41.87a5 5 0 004.87 4.4 4.75 4.75 0 004.5-3v-.09h2l-.07.19a6.86 6.86 0 01-13.35-2.27zm2-1h9.76A5.05 5.05 0 0046.74 6a5 5 0 00-4.85 4.14zM59.47 10A3.58 3.58 0 0163 6.25h.13v-2H63c-1.8.1-2.88.66-3.54 1.84V4.56h-1.92v13.2h1.93zM69 17.76h1.93V6.32H74V4.56h-3.07V0H69v4.56h-2.72v1.76H69zm7.37-6.64a6.92 6.92 0 017.09-6.89 6 6 0 014.94 2.36v-2h1.93v13.2H88.4v-2.08a6.14 6.14 0 01-4.94 2.35 6.93 6.93 0 01-7.09-6.94zm1.93.07a5 5 0 005.16 5.11A5.16 5.16 0 0083.43 6a5.06 5.06 0 00-5.13 5.19zM96.64 0h-1.93v3.25h1.93zm0 4.56h-1.93v13.2h1.93zm6.61 5.74c0-2.58 1.57-4.31 3.91-4.31S111 7.73 111 10.41v7.35h2v-7.35c0-3.75-2.29-6.18-5.83-6.18A4.89 4.89 0 00103.25 6V4.56h-1.92v13.2h1.92zm33.25 7.46V9.87c0-3.37-2.14-5.64-5.31-5.64a5 5 0 00-4.35 2.36 4.94 4.94 0 00-4.35-2.36 4.22 4.22 0 00-3.38 1.53v-1.2h-1.93v13.2h1.93v-7.7c0-2.55 1.26-4.07 3.38-4.07s3.39 1.52 3.39 4.07v7.7h1.92v-7.68c0-2.56 1.27-4.09 3.39-4.09s3.38 1.51 3.38 4v7.72zm3.6-6.59a7 7 0 016.9-6.94 7.07 7.07 0 016.91 7 2.17 2.17 0 010 .26v.38h-11.83A5 5 0 00147 16.3a4.77 4.77 0 004.5-3v-.09h2l-.07.19a6.86 6.86 0 01-13.35-2.27zm2-1h9.76A5.05 5.05 0 00147 6a5 5 0 00-4.9 4.14zm17.34.16c0-2.58 1.57-4.31 3.9-4.31s3.88 1.74 3.88 4.42v7.35h1.93v-7.38c0-3.75-2.29-6.18-5.83-6.18A4.89 4.89 0 00159.44 6V4.56h-1.93v13.2h1.93zm15.89 7.46h1.93V6.32h3.09V4.56h-3.09V0h-1.93v4.56h-2.72v1.76h2.72zm16.28-6.64a6.91 6.91 0 017.08-6.89 6 6 0 014.95 2.36v-2h1.92v13.2h-1.92v-2.11a6.14 6.14 0 01-4.95 2.35 6.93 6.93 0 01-7.08-6.94zm1.93.07a5 5 0 005.15 5.11 5.16 5.16 0 000-10.31 5.05 5.05 0 00-5.15 5.17zm18.57-.89c0-2.58 1.57-4.31 3.9-4.31s3.88 1.74 3.88 4.42v7.35h1.93v-7.38c0-3.75-2.29-6.18-5.83-6.18A4.88 4.88 0 00212.11 6V4.56h-1.93v13.2h1.93zm12.82.82A6.91 6.91 0 01232 4.23a6.24 6.24 0 015 2.34V0h1.93v17.76H237v-2.05a6.18 6.18 0 01-5 2.35 6.93 6.93 0 01-7.07-6.94zm1.92.07A5 5 0 00232 16.3 5.16 5.16 0 00232 6a5.06 5.06 0 00-5.15 5.19zM254.33 0h-2v17.76h2zM261 10.3c0-2.58 1.54-4.3 3.88-4.3s3.88 1.74 3.88 4.42v7.35h1.92v-7.36c0-3.75-2.29-6.18-5.83-6.18A4.89 4.89 0 00261 6V4.56h-1.92v13.2H261zm24.09 7.46H287v-7.35c0-3.75-2.29-6.18-5.83-6.18A4.88 4.88 0 00277.28 6V4.56h-1.93v13.2h1.93V10.3c0-2.58 1.57-4.31 3.9-4.31s3.88 1.74 3.88 4.42zm5.81-6.52a6.9 6.9 0 1113.79-.09 6.9 6.9 0 01-13.79.09zm1.93 0a5 5 0 109.93-.14 5 5 0 00-5-5.09 5.1 5.1 0 00-4.96 5.21zm19.41 6.54h2l5.49-13 .08-.19h-2.07l-4.54 10.65-4.5-10.68h-2.07l5.54 13.11zm9.76-6.66a6.91 6.91 0 017.08-6.89 6 6 0 014.95 2.36v-2H336v13.2h-1.92v-2.08a6.14 6.14 0 01-4.95 2.35 6.93 6.93 0 01-7.13-6.94zm1.93.07a5 5 0 005.15 5.11A5.16 5.16 0 00329.1 6a5.05 5.05 0 00-5.1 5.19zm18.15 6.57h1.93V6.32h3.1V4.56h-3.1V0h-1.93v4.56h-2.71v1.76h2.71zM352.68 0h-1.93v3.25h1.93zm0 4.56h-1.93v13.2h1.93zm3.91 6.68a6.89 6.89 0 1113.78-.09 6.89 6.89 0 01-13.78.09zm1.92 0a5 5 0 109.94-.14 5 5 0 00-5-5.09 5.1 5.1 0 00-4.94 5.21zm17.2-.92c0-2.58 1.57-4.31 3.91-4.31s3.88 1.74 3.88 4.42v7.35h1.92v-7.37c0-3.75-2.28-6.18-5.83-6.18A4.89 4.89 0 00375.71 6V4.56h-1.92v13.2h1.92zm-273.44 197Q116.4 193.95 116.4 178v-9.9H98.2v6a27.39 27.39 0 01-9 21q-9 8.31-22.59 8.32H50.29q-13.71 0-22.71-8.34a27.45 27.45 0 01-9-21V90.75a27.63 27.63 0 019-21.09q9-8.4 22.71-8.4H66.6q13.59 0 22.59 8.41a27.65 27.65 0 019 21.1V97h18.2V86.9q0-16.05-14.13-29.35t-31.55-13.3H46.28q-17.41 0-31.55 13.14T.59 86.9V178q0 16.38 14.14 29.51t31.55 13.14h24.43q17.42.01 31.56-13.34zm104.82-75.69L258 44.25h-20.84l-37.32 63.54-37.33-63.54h-20.86l51 87.48-50.95 88.93h20.82l37.32-65.8 37.32 65.8H258zm101.33 71.81V44.25h-18.21v176.41h98.48v-17.23z" data-name="レイヤー 2"/></symbol><symbol viewBox="0 0 41.79 7" id="next" xmlns="http://www.w3.org/2000/svg"><path fill-rule="evenodd" d="M.2 4.989h30.1v2.007H.2V4.989z"/><path fill-rule="evenodd" d="M41.993 6.995H29.985V0"/></symbol><symbol viewBox="0 0 46.19 12.04" id="next-small" xmlns="http://www.w3.org/2000/svg"><path fill-rule="evenodd" d="M.403 7.882h28.002v5.058H.403V7.882z"/><path fill-rule="evenodd" d="M46.589 12.93H27.377V.898"/></symbol><symbol viewBox="0 0 41.4 7" id="prev" xmlns="http://www.w3.org/2000/svg"><path fill-rule="evenodd" d="M41.997 4.989H11.996v2.007h30.001V4.989z"/><path fill-rule="evenodd" d="M.6 6.995h11.54V0"/></symbol><symbol viewBox="0 0 46.19 12.04" id="prev-small" xmlns="http://www.w3.org/2000/svg"><path fill-rule="evenodd" d="M46.596 7.882H18.594v5.058h28.002V7.882z"/><path fill-rule="evenodd" d="M.41 12.93h19.212V.898"/></symbol><symbol viewBox="0 0 827.03 672.14" id="twitter" xmlns="http://www.w3.org/2000/svg"><path d="M260.1 672.14c312.1 0 482.77-258.57 482.77-482.77 0-7.35-.15-14.66-.48-21.94 33.13-23.95 61.93-53.83 84.65-87.85-30.4 13.5-63.12 22.61-97.44 26.71 35.03-21 61.93-54.24 74.61-93.86C771.42 31.87 735.12 46 696.47 53.62 665.5 20.63 621.4 0 572.61 0c-93.71 0-169.7 75.99-169.7 169.67 0 13.32 1.49 26.26 4.4 38.69-141.02-7.09-266.07-74.62-349.75-177.28-14.59 25.07-22.98 54.21-22.98 85.28 0 58.87 29.96 110.84 75.51 141.24-27.83-.86-53.98-8.5-76.85-21.23-.04.71-.04 1.42-.04 2.16 0 82.18 58.5 150.79 136.13 166.35a170.065 170.065 0 01-44.73 5.97c-10.93 0-21.56-1.08-31.9-3.06 21.6 67.41 84.24 116.47 158.51 117.85-58.09 45.51-131.24 72.63-210.74 72.63-13.69 0-27.2-.78-40.48-2.35 75.1 48.12 164.26 76.21 260.1 76.21"/></symbol></svg>